<svg width="42" height="42" viewBox="0 0 42 42" fill="none" xmlns="http://www.w3.org/2000/svg">
<path d="M35.9805 1H5.37256C2.95766 1 1 2.95766 1 5.37256V35.9805C1 38.3954 2.95766 40.353 5.37256 40.353H35.9805C38.3954 40.353 40.353 38.3954 40.353 35.9805V5.37256C40.353 2.95766 38.3954 1 35.9805 1Z" stroke="#566474" stroke-width="2" stroke-linecap="round" stroke-linejoin="round"/>
<path d="M13.0245 16.304C14.8357 16.304 16.304 14.8357 16.304 13.0245C16.304 11.2134 14.8357 9.74512 13.0245 9.74512C11.2134 9.74512 9.74512 11.2134 9.74512 13.0245C9.74512 14.8357 11.2134 16.304 13.0245 16.304Z" stroke="#566474" stroke-width="2" stroke-linecap="round" stroke-linejoin="round"/>
<path d="M40.353 27.2354L29.4216 16.304L5.37256 40.353" stroke="#566474" stroke-width="2" stroke-linecap="round" stroke-linejoin="round"/>
</svg>
